<svg width="20" height="20" viewBox="0 0 20 20" fill="none" xmlns="http://www.w3.org/2000/svg">
  <g clip-path="url(#clip0_540_2377)">
    <path
      d="M9.4 2.79L10 2L10.6 2.79C10.83 3.1 10.79 3.53 10.51 3.79V5.98H13.01C14.11 5.98 15.01 6.88 15.01 7.98V10.98H16.01C17.11 10.98 18.01 11.88 18.01 12.98V16.98C18.01 17.53 17.56 17.98 17.01 17.98H3C2.45 17.98 2 17.53 2 16.98V12.98C2 11.88 2.9 10.98 4 10.98H5V7.98C5 6.88 5.9 5.98 7 5.98H9.5V3.8C9.21 3.54 9.16 3.1 9.4 2.79ZM14 8.4C13.76 8.4 13.53 8.3 13.35 8.13C12.6 7.38 11.39 7.38 10.64 8.13C10.28 8.49 9.7 8.49 9.35 8.13C8.6 7.38 7.39 7.38 6.64 8.13C6.47 8.3 6.24 8.4 5.99 8.4V9.4C6.48 9.4 6.97 9.21 7.34 8.84C7.7 8.48 8.28 8.48 8.63 8.84C9.38 9.59 10.59 9.59 11.34 8.84C11.7 8.48 12.28 8.48 12.63 8.84C13 9.21 13.49 9.4 13.98 9.4V8.4H14ZM16.65 14.13C16.29 14.49 15.71 14.49 15.36 14.13C14.61 13.38 13.4 13.38 12.65 14.13C12.29 14.49 11.71 14.49 11.36 14.13C10.61 13.38 9.4 13.38 8.65 14.13C8.29 14.49 7.71 14.49 7.36 14.13C6.61 13.38 5.4 13.38 4.65 14.13C4.29 14.49 3.71 14.49 3.36 14.13L3.01 13.78V15.12C3.75 15.57 4.73 15.48 5.36 14.84C5.72 14.48 6.3 14.48 6.65 14.84C7.4 15.59 8.61 15.59 9.36 14.84C9.72 14.48 10.3 14.48 10.65 14.84C11.4 15.59 12.61 15.59 13.36 14.84C13.72 14.48 14.3 14.48 14.65 14.84C15.28 15.47 16.25 15.58 17 15.12V13.78L16.65 14.13Z"
      fill="#3B3C3F" />
  </g>
  <defs>
    <clipPath id="clip0_540_2377">
      <rect width="16" height="15.99" fill="white" transform="translate(2 2)" />
    </clipPath>
  </defs>
</svg>