<svg width="24" height="24" viewBox="0 0 24 24" fill="none" xmlns="http://www.w3.org/2000/svg">
<g id="Group 2284">
<circle id="Ellipse 108" cx="12" cy="12" r="11.5" fill="white" stroke="#FF7700"/>
<g id="Group 2283">
<path id="Union" fill-rule="evenodd" clip-rule="evenodd" d="M12.0003 4.48047C8.60594 4.48047 7.17896 7.5506 7.17896 10.2661C7.17896 12.8764 8.49751 15.8143 11.6146 16.0381V15.837C9.23073 15.5586 8.72179 12.6731 8.72179 10.2661C8.72179 7.73437 9.28481 4.67332 12.0003 4.67332C14.5792 4.67332 15.2167 7.43409 15.2743 9.88038H16.8121C16.6829 7.2682 15.2348 4.48047 12.0003 4.48047ZM12.0016 11.4225V15.8581H12.0014V16.051C13.8278 16.051 15.0847 15.162 15.8561 13.9178C15.7972 16.1728 14.6453 19.3295 12.0014 19.3295V19.5223C15.3957 19.5223 16.8227 16.4522 16.8227 13.7367V10.2654H15.8584H15.2799C15.2799 12.2302 14.8554 14.9995 12.9659 15.6949V11.2296V10.2654L11.0373 11.2296L10.4585 11.5189C10.4585 11.5189 10.6515 11.7118 11.0373 11.6153L12.0016 11.4225Z" fill="#FF7700"/>
</g>
</g>
</svg>
