<svg width="20" height="20" viewBox="0 0 20 20" fill="none" xmlns="http://www.w3.org/2000/svg">
  <g clip-path="url(#clip0_540_2375)">
    <path
      d="M10.75 3.29504C10.33 2.89531 9.66 2.89531 9.24 3.29504L2.16 10.0428C1.95 10.2427 1.95 10.5663 2.16 10.7661C2.37 10.966 2.71 10.966 2.92 10.7661L10 4.01835L17.09 10.7661C17.3 10.966 17.64 10.966 17.85 10.7661C18.06 10.5663 18.06 10.2427 17.85 10.0428L15.34 7.65397V4.31339C15.34 4.03739 15.1 3.80897 14.81 3.80897H13.74C13.45 3.80897 13.21 4.03739 13.21 4.31339V5.62678L10.75 3.29504Z"
      fill="#3B3C3F" />
    <path
      d="M10 5.11285L16.4 11.2039V15.4772C16.4 16.3148 15.68 17 14.8 17H5.20001C4.32001 17 3.60001 16.3148 3.60001 15.4772V11.2039L10 5.11285Z"
      fill="#3B3C3F" />
  </g>
  <defs>
    <clipPath id="clip0_540_2375">
      <rect width="16" height="14" fill="white" transform="translate(2 3)" />
    </clipPath>
  </defs>
</svg>