<svg width="20" height="20" viewBox="0 0 20 20" fill="none" xmlns="http://www.w3.org/2000/svg">
  <g clip-path="url(#clip0_540_2373)">
    <path
      d="M9 3C7.9 3 7 3.9 7 5H3.5C2.67 5 2 5.67 2 6.5V15.5C2 16.33 2.67 17 3.5 17H4C4 17.28 4.22 17.5 4.5 17.5C4.78 17.5 5 17.28 5 17H15C15 17.28 15.22 17.5 15.5 17.5C15.78 17.5 16 17.28 16 17H16.5C17.33 17 18 16.33 18 15.5V6.5C18 5.67 17.33 5 16.5 5H13C13 3.9 12.1 3 11 3H9ZM8 5C8 4.45 8.45 4 9 4H11C11.55 4 12 4.45 12 5H8ZM5 16V6H6V16H5ZM14 16V6H15V16H14Z"
      fill="#3B3C3F" />
  </g>
  <defs>
    <clipPath id="clip0_540_2373">
      <rect width="16" height="14.5" fill="white" transform="translate(2 3)" />
    </clipPath>
  </defs>
</svg>