<svg width="16" height="14" viewBox="0 0 16 14" fill="none" xmlns="http://www.w3.org/2000/svg">
<g id="_&#235;&#160;&#136;&#236;&#157;&#180;&#236;&#150;&#180;_1" clip-path="url(#clip0_1628_4263)">
<path id="Vector" d="M8.00076 0.125C3.85748 0.125 0.5 2.77279 0.5 6.04082C0.5 8.16694 1.92264 10.0322 4.05811 11.074C3.90156 11.6579 3.48966 13.1911 3.40759 13.5186C3.30576 13.925 3.55654 13.9205 3.72069 13.8113C3.84988 13.7249 5.77561 12.4177 6.607 11.855C7.05842 11.9218 7.52351 11.9566 7.99924 11.9566C12.141 11.9566 15.5 9.30885 15.5 6.04082C15.5 2.77279 12.1425 0.125 8.00076 0.125Z" fill="#371D1E"/>
<g id="Group">
<g id="Group_2">
<path id="Vector_2" d="M2.76771 4.95196H3.53982C3.53982 4.95196 3.54438 7.06746 3.53982 7.56032C3.53982 7.91973 4.34233 7.92428 4.34233 7.56487L4.34537 4.97926C4.34537 4.97926 4.60376 4.98077 5.11293 4.98077C5.59322 4.98077 5.59322 4.22708 5.11293 4.22708C4.57184 4.22708 2.76467 4.21191 2.76467 4.21191C2.31173 4.21191 2.31325 4.95044 2.76467 4.95044" fill="#FAE100"/>
<g id="Clip path group">
<mask id="mask0_1628_4263" style="mask-type:luminance" maskUnits="userSpaceOnUse" x="2" y="4" width="4" height="4">
<g id="clippath-1">
<path id="Vector_3" d="M2.76771 4.95196H3.53982C3.53982 4.95196 3.54438 7.06746 3.53982 7.56032C3.53982 7.91973 4.34233 7.92428 4.34233 7.56487L4.34537 4.97926C4.34537 4.97926 4.60376 4.98077 5.11293 4.98077C5.59322 4.98077 5.59322 4.22708 5.11293 4.22708C4.57184 4.22708 2.76467 4.21191 2.76467 4.21191C2.31173 4.21191 2.31325 4.95044 2.76467 4.95044" fill="white"/>
</g>
</mask>
<g mask="url(#mask0_1628_4263)">
<g id="Group_3">
<path id="Vector_4" d="M5.59472 4.21387H2.31323V7.92623H5.59472V4.21387Z" fill="#FAE100"/>
</g>
</g>
</g>
</g>
<g id="Group_4">
<path id="Vector_5" d="M6.46251 5.08836L6.89264 6.43197H5.99742L6.46251 5.08836ZM5.9807 4.45902C5.79071 4.87606 5.10523 6.84749 4.87724 7.37068C4.71309 7.74829 5.42289 8.05613 5.58704 7.67853L5.74207 7.14017H7.15407C7.15407 7.14017 7.10543 7.16292 7.29238 7.65578C7.44437 8.05613 8.17849 7.77862 8.02498 7.37826C7.80763 6.80655 7.05831 4.75019 6.92152 4.45902C6.85921 4.32405 6.63274 4.22852 6.41387 4.22852C6.233 4.22852 6.05517 4.29524 5.9807 4.45902Z" fill="#FAE100"/>
<g id="Clip path group_2">
<mask id="mask1_1628_4263" style="mask-type:luminance" maskUnits="userSpaceOnUse" x="4" y="4" width="5" height="4">
<g id="clippath-4">
<path id="Vector_6" d="M6.46251 5.08836L6.89264 6.43197H5.99742L6.46251 5.08836ZM5.9807 4.45902C5.79071 4.87606 5.10523 6.84749 4.87724 7.37068C4.71309 7.74829 5.42289 8.05613 5.58704 7.67853L5.74207 7.14017H7.15407C7.15407 7.14017 7.10543 7.16292 7.29238 7.65578C7.44437 8.05613 8.17849 7.77862 8.02498 7.37826C7.80763 6.80655 7.05831 4.75019 6.92152 4.45902C6.85921 4.32405 6.63274 4.22852 6.41387 4.22852C6.233 4.22852 6.05517 4.29524 5.9807 4.45902Z" fill="white"/>
</g>
</mask>
<g mask="url(#mask1_1628_4263)">
<g id="Group_5">
<path id="Vector_7" d="M8.18005 4.22852H4.71313V8.05765H8.18005V4.22852Z" fill="#FAE100"/>
</g>
</g>
</g>
</g>
<g id="Group_6">
<path id="Vector_8" d="M8.29712 4.58337C8.29712 5.25366 8.30168 7.41314 8.30168 7.41314C8.30168 7.41314 8.23936 7.84231 8.6087 7.84231C8.97804 7.84231 9.79575 7.83776 10.159 7.83776C10.5223 7.83776 10.5192 7.06738 10.1575 7.06738C9.79575 7.06738 9.13307 7.06283 9.13307 7.06283C9.13307 7.06283 9.13611 5.06562 9.13459 4.58034C9.13459 4.34529 8.92484 4.22852 8.71661 4.22852C8.50839 4.22852 8.29864 4.3468 8.29864 4.58186" fill="#FAE100"/>
<g id="Clip path group_3">
<mask id="mask2_1628_4263" style="mask-type:luminance" maskUnits="userSpaceOnUse" x="8" y="4" width="3" height="4">
<g id="clippath-7">
<path id="Vector_9" d="M8.29712 4.58337C8.29712 5.25366 8.30168 7.41314 8.30168 7.41314C8.30168 7.41314 8.23936 7.84231 8.6087 7.84231C8.97804 7.84231 9.79575 7.83776 10.159 7.83776C10.5223 7.83776 10.5192 7.06738 10.1575 7.06738C9.79575 7.06738 9.13307 7.06283 9.13307 7.06283C9.13307 7.06283 9.13611 5.06562 9.13459 4.58034C9.13459 4.34529 8.92484 4.22852 8.71661 4.22852C8.50839 4.22852 8.29864 4.3468 8.29864 4.58186" fill="white"/>
</g>
</mask>
<g mask="url(#mask2_1628_4263)">
<g id="Group_7">
<path id="Vector_10" d="M10.5206 4.22852H8.23926V7.84079H10.5206V4.22852Z" fill="#FAE100"/>
</g>
</g>
</g>
</g>
<g id="Group_8">
<path id="Vector_11" d="M10.618 4.47614C10.6256 4.77034 10.6089 7.42571 10.6089 7.62285C10.6089 7.93373 11.4023 7.93222 11.4008 7.62285C11.4008 7.26193 11.4008 6.57799 11.4008 6.57799L11.6333 6.39146L12.6516 7.77754C12.8568 8.04899 13.5043 7.55916 13.2991 7.28771L12.2185 5.86676C12.2185 5.86676 12.9526 5.07515 13.2414 4.78854C13.4101 4.62172 12.8872 4.0955 12.7185 4.26383C12.5544 4.4261 11.4053 5.57408 11.4053 5.57408C11.4053 5.57408 11.416 4.85375 11.4053 4.45491C11.4008 4.30326 11.2153 4.23047 11.0253 4.23047C10.8217 4.23047 10.6134 4.31388 10.618 4.47614Z" fill="#FAE100"/>
<g id="Clip path group_4">
<mask id="mask3_1628_4263" style="mask-type:luminance" maskUnits="userSpaceOnUse" x="10" y="4" width="4" height="4">
<g id="clippath-10">
<path id="Vector_12" d="M10.618 4.47614C10.6256 4.77034 10.6089 7.42571 10.6089 7.62285C10.6089 7.93373 11.4023 7.93222 11.4008 7.62285C11.4008 7.26193 11.4008 6.57799 11.4008 6.57799L11.6333 6.39146L12.6516 7.77754C12.8568 8.04899 13.5043 7.55916 13.2991 7.28771L12.2185 5.86676C12.2185 5.86676 12.9526 5.07515 13.2414 4.78854C13.4101 4.62172 12.8872 4.0955 12.7185 4.26383C12.5544 4.4261 11.4053 5.57408 11.4053 5.57408C11.4053 5.57408 11.416 4.85375 11.4053 4.45491C11.4008 4.30326 11.2153 4.23047 11.0253 4.23047C10.8217 4.23047 10.6134 4.31388 10.618 4.47614Z" fill="white"/>
</g>
</mask>
<g mask="url(#mask3_1628_4263)">
<g id="Group_9">
<path id="Vector_13" d="M13.5058 4.09668H10.6089V8.04713H13.5058V4.09668Z" fill="#FAE100"/>
</g>
</g>
</g>
</g>
</g>
</g>
<defs>
<clipPath id="clip0_1628_4263">
<rect width="15" height="13.75" fill="white" transform="translate(0.5 0.125)"/>
</clipPath>
</defs>
</svg>
