<svg width="24" height="24" viewBox="0 0 24 24" fill="none" xmlns="http://www.w3.org/2000/svg">
<circle cx="12" cy="12" r="11.5" fill="white" stroke="#FF7700"/>
<path fill-rule="evenodd" clip-rule="evenodd" d="M12.0005 4.48047C8.60618 4.48047 7.1792 7.5506 7.1792 10.2661C7.1792 12.8764 8.49775 15.8143 11.6148 16.0381V15.837C9.23097 15.5586 8.72203 12.6731 8.72203 10.2661C8.72203 7.73437 9.28506 4.67332 12.0005 4.67332C14.5794 4.67332 15.217 7.43409 15.2746 9.88038H16.8123C16.6831 7.2682 15.235 4.48047 12.0005 4.48047ZM12.0018 11.4225V15.8581H12.0016V16.051C13.8281 16.051 15.0849 15.162 15.8563 13.9178C15.7974 16.1728 14.6455 19.3295 12.0016 19.3295V19.5223C15.396 19.5223 16.823 16.4522 16.823 13.7367V10.2654H15.8587H15.2801C15.2801 12.2302 14.8556 14.9995 12.9661 15.6949V11.2296V10.2654L11.0376 11.2296L10.4588 11.5189C10.4588 11.5189 10.6518 11.7118 11.0376 11.6153L12.0018 11.4225Z" fill="#FF7700"/>
</svg>
