<svg xmlns="http://www.w3.org/2000/svg" width="16" height="24" viewBox="0 0 16 24" fill="none">
  <path fill-rule="evenodd" clip-rule="evenodd"
    d="M8.00006 0.299896C2.71981 0.299896 0.5 5.07577 0.5 9.29997C0.5 13.3605 2.55113 17.9308 7.40005 18.2788V17.9661C3.69172 17.533 2.90002 13.0443 2.90002 9.29997C2.90002 5.36164 3.77586 0.599899 8.00006 0.599899C12.0117 0.599899 13.0035 4.89453 13.0931 8.69996H15.4853C15.2842 4.63647 13.0316 0.299896 8.00006 0.299896ZM8.0003 11.1V18H7.99993V18.3C10.8412 18.3 12.7963 16.9172 13.9963 14.9817C13.9047 18.4896 12.1128 23.4001 7.99993 23.4001V23.7001C13.2802 23.7001 15.5 18.9242 15.5 14.7V9.29998H14H13.1C13.1 12.3565 12.4396 16.6645 9.50031 17.7461V10.8V9.29998L6.50028 10.8L5.59991 11.25C5.59991 11.25 5.90013 11.55 6.50028 11.4L8.0003 11.1Z"
    fill="#FF7700" />
</svg>