<svg width="20" height="20" viewBox="0 0 20 20" fill="none" xmlns="http://www.w3.org/2000/svg">
  <path fill-rule="evenodd" clip-rule="evenodd"
    d="M6.96844 6.66666C6.48132 6.66666 6.06507 7.01765 5.9828 7.49777L4.30003 17.3184H3.00774C2.72732 17.3184 2.5 17.5458 2.5 17.8262C2.5 18.1066 2.72732 18.3339 3.00774 18.3339H16.9923C17.2727 18.3339 17.5 18.1066 17.5 17.8262C17.5 17.5458 17.2727 17.3184 16.9923 17.3184H15.7L14.0172 7.49777C13.9349 7.01765 13.5187 6.66666 13.0316 6.66666H6.96844Z"
    fill="#3B3C3F" />
  <path fill-rule="evenodd" clip-rule="evenodd"
    d="M16.0417 10C16.0417 9.65482 16.3215 9.375 16.6667 9.375H19.1667C19.5119 9.375 19.7917 9.65482 19.7917 10C19.7917 10.3452 19.5119 10.625 19.1667 10.625H16.6667C16.3215 10.625 16.0417 10.3452 16.0417 10Z"
    fill="#3B3C3F" />
  <path fill-rule="evenodd" clip-rule="evenodd"
    d="M17.7336 3.51637C17.9777 3.76045 17.9777 4.15618 17.7336 4.40025L16.0669 6.06692C15.8229 6.311 15.4271 6.311 15.1831 6.06692C14.939 5.82284 14.939 5.42712 15.1831 5.18304L16.8497 3.51637C17.0938 3.27229 17.4895 3.27229 17.7336 3.51637Z"
    fill="#3B3C3F" />
  <path fill-rule="evenodd" clip-rule="evenodd"
    d="M10 1.04166C10.3452 1.04166 10.625 1.32148 10.625 1.66666V4.16666C10.625 4.51183 10.3452 4.79166 10 4.79166C9.65482 4.79166 9.375 4.51183 9.375 4.16666V1.66666C9.375 1.32148 9.65482 1.04166 10 1.04166Z"
    fill="#3B3C3F" />
  <path fill-rule="evenodd" clip-rule="evenodd"
    d="M2.68306 3.51637C2.92714 3.27229 3.32286 3.27229 3.56694 3.51637L5.23361 5.18304C5.47769 5.42712 5.47769 5.82284 5.23361 6.06692C4.98953 6.311 4.5938 6.311 4.34972 6.06692L2.68306 4.40025C2.43898 4.15618 2.43898 3.76045 2.68306 3.51637Z"
    fill="#3B3C3F" />
  <path fill-rule="evenodd" clip-rule="evenodd"
    d="M0.208344 10C0.208344 9.65482 0.488166 9.375 0.833344 9.375H3.33334C3.67852 9.375 3.95834 9.65482 3.95834 10C3.95834 10.3452 3.67852 10.625 3.33334 10.625H0.833344C0.488166 10.625 0.208344 10.3452 0.208344 10Z"
    fill="#3B3C3F" />
</svg>