<svg width="18" height="18" viewBox="0 0 18 18" fill="none" xmlns="http://www.w3.org/2000/svg">
<g id="stopwatch">
<g id="Union">
<path d="M9.56249 6.29997C9.56249 5.98931 9.31065 5.73747 8.99998 5.73747C8.68932 5.73747 8.43749 5.98931 8.43749 6.29997L8.4375 9.5625H5.0625C4.75184 9.5625 4.5 9.81434 4.5 10.125C4.5 10.4357 4.75184 10.6875 5.0625 10.6875H9C9.14919 10.6875 9.29226 10.6282 9.39775 10.5227C9.50324 10.4173 9.5625 10.2742 9.5625 10.125L9.56249 6.29997Z" fill="#FF4A31"/>
<path d="M7.3125 1.125C7.3125 0.81434 7.56434 0.5625 7.875 0.5625H10.125C10.4357 0.5625 10.6875 0.81434 10.6875 1.125C10.6875 1.43566 10.4357 1.6875 10.125 1.6875V2.32981C11.6549 2.54872 13.0428 3.20718 14.1568 4.17315C14.1614 4.16828 14.166 4.16347 14.1707 4.15873L14.5685 3.76098L14.1707 3.36323C13.9511 3.14356 13.9511 2.78741 14.1707 2.56774C14.3904 2.34807 14.7466 2.34807 14.9662 2.56774L16.5572 4.15873C16.7769 4.3784 16.7769 4.73455 16.5572 4.95422C16.3376 5.17389 15.9814 5.17389 15.7617 4.95422L15.364 4.55647L14.9662 4.95422C14.9615 4.95896 14.9567 4.96359 14.9518 4.96812C16.15 6.34969 16.875 8.15261 16.875 10.125C16.875 14.4742 13.3492 18 9 18C4.65076 18 1.125 14.4742 1.125 10.125C1.125 6.15766 4.05843 2.87594 7.875 2.32981V1.6875C7.56434 1.6875 7.3125 1.43566 7.3125 1.125ZM9 3.375C8.82499 3.375 8.65163 3.38165 8.48017 3.39469C4.99543 3.65978 2.25 6.57204 2.25 10.125C2.25 13.8529 5.27208 16.875 9 16.875C12.7279 16.875 15.75 13.8529 15.75 10.125C15.75 6.57204 13.0046 3.65978 9.51983 3.39469C9.34837 3.38165 9.17501 3.375 9 3.375Z" fill="#FF4A31"/>
</g>
</g>
</svg>
