<svg width="20" height="21" viewBox="0 0 20 21" fill="none" xmlns="http://www.w3.org/2000/svg">
<g id="Group 2302">
<path id="Star 1" d="M8.11249 2.02787C9.21313 1.13694 10.7869 1.13694 11.8875 2.02787L12.009 2.12622C12.529 2.54711 13.1747 2.78214 13.8436 2.79394L13.9999 2.7967C15.4157 2.82169 16.6212 3.83327 16.8917 5.22323L16.9216 5.37667C17.0493 6.03333 17.3929 6.62844 17.8977 7.06742L18.0157 7.17C19.0842 8.09921 19.3575 9.64903 18.6712 10.8877L18.5954 11.0244C18.2712 11.6096 18.1519 12.2863 18.2564 12.947L18.2808 13.1014C18.5021 14.5001 17.7152 15.863 16.3933 16.3707L16.2474 16.4267C15.6229 16.6666 15.0965 17.1083 14.7519 17.6817L14.6713 17.8156C13.9418 19.0293 12.4629 19.5675 11.124 19.1068L10.9762 19.0559C10.3436 18.8382 9.65641 18.8382 9.02385 19.0559L8.87604 19.1068C7.53706 19.5675 6.05823 19.0293 5.32868 17.8156L5.24815 17.6817C4.90349 17.1083 4.37709 16.6666 3.75259 16.4267L3.60667 16.3707C2.28478 15.863 1.49792 14.5001 1.71916 13.1014L1.74359 12.947C1.84811 12.2863 1.72878 11.6096 1.40457 11.0244L1.32881 10.8877C0.642546 9.64903 0.915823 8.09921 1.98434 7.17L2.10229 7.06742C2.60709 6.62844 2.95067 6.03333 3.07845 5.37667L3.1083 5.22323C3.37877 3.83327 4.58432 2.82169 6.00013 2.7967L6.15642 2.79394C6.82529 2.78214 7.47102 2.54711 7.99099 2.12622L8.11249 2.02787Z" fill="#FF7700"/>
<path id="Vector 384" d="M5.45557 10.6296L8.04441 13.227L13.6374 7.77246" stroke="white" stroke-width="1.5" stroke-linecap="round" stroke-linejoin="round"/>
</g>
</svg>
